# xmcd
#
# Track frame offsets: 
#        150
#        10087
#        29691
#        47260
#        57552
#        76527
#        104437
#        114526
#        123850
#        136467
#        148418
#        170038
#        184409
#        201666
#        214295
#        227275
#        246140
#        255485
#
# Disc length: 3759 seconds
#
# Revision: 1
# Processed by: cddbd v1.5.2PL0 Copyright (c) Steve Scherf et al.
# Submitted via: ExactAudioCopy v0.99pb4
#
DISCID=060ead12
DTITLE=Владимир Высоцкий - Я Первый Раз В Италии
DYEAR=1999
DGENRE=Chanson
TTITLE0=Дайте Собакам Мяса
TTITLE1=Рассказ Об Италии, О Фильме Для Итальянского Телевидения
TTITLE2=Чужая Колея
TTITLE3=Рассказ Об Авторской Песне, О Её Отличиях От "Официальной" Пес
TTITLE3=ни
TTITLE4=Конец Охоты На Волков, Или Охота С Вертолётов
TTITLE5=Рассказ О Ранних Песнях, О Разнице Между Ранними И Новыми Песн
TTITLE5=ями
TTITLE6=Мать Моя - Давай Рыдать...
TTITLE7=Письмо К Другу, Или Зарисовка О Париже
TTITLE8="За Меня Невеста Отрыдает Честно..."
TTITLE9="То Ли - В Избу И Запеть..."
TTITLE10=Кони Привередливые
TTITLE11=Спасите Наши Души
TTITLE12=Старый Дом
TTITLE13=Rien Ne Va, Plus Rien Ne Va...
TTITLE14="Я Больше Не Избавлюсь От Покоя..."
TTITLE15=Охота На Волков
TTITLE16=Таганка
TTITLE17=Купола
EXTD=Итальянское радио 9 июля (18 песен) Solyd Records, 1999 г.\nДоп. 
EXTD=информация: 9 июля 1979 года Владимир Высоцкий, находясь в Риме, 
EXTD=\nзаписал передачу для Итальянского радио. За неделю до этого - 2
EXTD=июля - \nон выступил с концертом в римском ресторане "Отелло". Н
EXTD=а итальянский язык \nтексты переводила Марина Влади.
EXTT0=
EXTT1=
EXTT2=
EXTT3=
EXTT4=
EXTT5=
EXTT6=
EXTT7=
EXTT8=
EXTT9=
EXTT10=
EXTT11=
EXTT12=
EXTT13=
EXTT14=
EXTT15=
EXTT16=
EXTT17=
PLAYORDER=
